<?xml version="1.0" encoding="utf-8"?>
<!-- Generator: Adobe Illustrator 25.2.3, SVG Export Plug-In . SVG Version: 6.00 Build 0)  -->
<svg version="1.1" id="Capa_1" xmlns="http://www.w3.org/2000/svg" xmlns:xlink="http://www.w3.org/1999/xlink" x="0px" y="0px"
	 viewBox="0 0 470 470" style="enable-background:new 0 0 470 470;" xml:space="preserve">
<style type="text/css">
	.st0{fill:#40352C;}
	.st1{fill:#FFFFFF;}
	.st2{fill:#231F20;}
	.st3{fill:#73574D;}
</style>
<g>
	<path class="st0" d="M454.5,209.9c-5.8-36.8-34.8-65.2-70.6-69.2c-16.8-1.8-27.7-6.6-37.6-16.6c-9.9-9.9-14.7-20.8-16.6-37.6
		c-2.3-21.3-13.1-40.4-30.4-53.8c-17.9-13.9-41.1-20.1-63.6-17c-43.3,6-73.8,46.5-72.3,96.2c0.5,16.3,3.9,32.8,10,49.3
		c15.1-8.8,32.4-13.5,50.1-13.5c4.6,0,9.2,0.3,13.8,1c25.4,3.5,48,17.3,63.6,38.8c14.7,20.3,22.4,46.1,21.7,72.8
		c-0.4,13-2.5,26.1-6.1,39.2c14.1,4.5,28.2,7.1,42,7.5c48.2,1.4,88.5-27.9,95.8-69.6c0.7-4,4.4-6.7,8.4-6.1
		c0.5-5.1,0.5-10.2,0.1-15.1C458.8,216.6,455.1,213.9,454.5,209.9z M293.5,57.2c-1.5,1.7-3.6,2.6-5.7,2.6c-1.7,0-3.5-0.6-4.9-1.8
		c-9.8-8.4-22.4-13-35.4-13c-4.1,0-7.5-3.4-7.5-7.5s3.4-7.5,7.5-7.5c16.6,0,32.6,5.9,45.1,16.6C295.8,49.3,296.2,54.1,293.5,57.2z
		 M388.9,163.9c-0.4,3.8-3.7,6.7-7.4,6.7c-0.3,0-0.6,0-0.8,0c-23.6-2.6-40.7-10.4-55.5-25.2c-14.8-14.8-22.6-31.9-25.2-55.5
		c-0.5-4.1,2.5-7.8,6.6-8.3c4.1-0.5,7.8,2.5,8.3,6.6c2.2,20,8.6,34.3,20.9,46.6c12.2,12.2,26.6,18.7,46.6,20.9
		C386.4,156.1,389.4,159.8,388.9,163.9z"/>
	<path class="st1" d="M382.3,155.6c-20-2.2-34.3-8.6-46.6-20.9c-12.2-12.2-18.7-26.6-20.9-46.6c-0.5-4.1-4.2-7.1-8.3-6.6
		c-4.1,0.5-7.1,4.2-6.6,8.3c2.6,23.6,10.4,40.7,25.2,55.5c14.8,14.8,31.9,22.6,55.5,25.2c0.3,0,0.6,0,0.8,0c3.8,0,7-2.8,7.4-6.7
		C389.4,159.8,386.4,156.1,382.3,155.6z"/>
	<path class="st1" d="M292.7,46.6C280.1,35.9,264.1,30,247.5,30c-4.1,0-7.5,3.4-7.5,7.5s3.4,7.5,7.5,7.5c13,0,25.6,4.6,35.4,13
		c1.4,1.2,3.1,1.8,4.9,1.8c2.1,0,4.2-0.9,5.7-2.6C296.2,54.1,295.8,49.3,292.7,46.6z"/>
	<path class="st2" d="M463,231.4c-0.1,0-0.2,0-0.3,0c-4-0.5-7.7,2.2-8.4,6.1c-7.3,41.7-47.6,71-95.8,69.6c-13.9-0.4-27.9-2.9-42-7.5
		c3.7-13.1,5.8-26.2,6.1-39.2c0.8-26.6-6.9-52.5-21.7-72.8c-15.6-21.4-38.2-35.2-63.6-38.8c-4.6-0.6-9.2-1-13.8-1
		c-17.7,0-35,4.7-50.1,13.5c-6.2-16.5-9.6-33.1-10-49.3c-1.4-49.7,29-90.2,72.3-96.2c22.5-3.1,45.7,3.1,63.6,17
		c17.2,13.4,28,32.5,30.4,53.8c1.8,16.8,6.6,27.7,16.6,37.6c9.9,9.9,20.8,14.7,37.6,16.6c35.8,3.9,64.8,32.4,70.6,69.2
		c0.6,4,4.3,6.7,8.3,6.3c0.1,0,0.2,0,0.3,0c4.1-0.6,6.9-4.5,6.2-8.6c-6.8-43.5-41.3-77.1-83.7-81.8c-13.4-1.5-21.2-4.8-28.6-12.3
		c-7.5-7.5-10.8-15.2-12.3-28.6c-2.8-25.3-15.6-48-36.1-64c-21.1-16.4-48.4-23.7-74.9-20c-25.4,3.5-48,17.3-63.6,38.8
		c-14.7,20.3-22.4,46.1-21.7,72.8c0.5,19.1,4.8,38.5,12.4,57.7c-0.6,0.5-1.3,1-1.9,1.6c-18.4,15.7-29.9,37.4-32.5,61.1
		c-1.5,13.4-4.8,21.2-12.3,28.6c-7.5,7.5-15.2,10.8-28.6,12.3c-25.3,2.8-48,15.6-64,36.1c-16.4,21.1-23.7,48.4-20,74.9
		C5,409.9,18,431.5,38.9,447.3c19.5,14.7,44.6,22.7,70.5,22.7c1.2,0,2.4,0,3.6-0.1c47.8-1.4,97.9-25.8,140.8-68.8
		c27.1-27.1,46.8-57,58-87.4c15.4,5,30.9,7.8,46.2,8.2c1.2,0,2.5,0.1,3.7,0.1c54.1,0,98.9-34,107.3-82.1
		C469.8,236,467.1,232.1,463,231.4z M16.4,382.6c-3.1-22.5,3.1-45.7,17-63.6c13.4-17.2,32.5-28,53.8-30.4
		c16.8-1.8,27.7-6.6,37.6-16.6c9.9-9.9,14.7-20.8,16.6-37.6c4.5-40.8,39.9-71.6,82.3-71.6c3.9,0,7.8,0.3,11.7,0.8
		c43.3,6,73.8,46.5,72.3,96.2c-1.3,44-24.1,90.4-64.4,130.6c-40.2,40.2-86.6,63.1-130.6,64.4c-1.1,0-2.1,0-3.2,0
		C61.3,455,22.2,424.5,16.4,382.6z"/>
	<path class="st3" d="M243.2,390.6c40.3-40.2,63.1-86.6,64.4-130.6c1.4-49.7-29-90.2-72.3-96.2c-3.9-0.5-7.8-0.8-11.7-0.8
		c-42.4,0-77.8,30.8-82.3,71.6c-1.8,16.8-6.6,27.7-16.6,37.6s-20.8,14.7-37.6,16.6C65.9,291,46.8,301.7,33.4,319
		c-13.9,17.9-20.1,41.1-17,63.6c5.8,41.9,45,72.4,93.1,72.4c1.1,0,2.1,0,3.2,0C156.6,453.7,203,430.8,243.2,390.6z M178.4,194.5
		c12.5-10.7,28.6-16.6,45.1-16.6c4.1,0,7.5,3.4,7.5,7.5s-3.4,7.5-7.5,7.5c-13,0-25.6,4.6-35.4,13c-1.4,1.2-3.1,1.8-4.9,1.8
		c-2.1,0-4.2-0.9-5.7-2.6C174.9,201.9,175.3,197.2,178.4,194.5z M90.4,318.4c-0.3,0-0.6,0-0.8,0c-3.8,0-7-2.8-7.4-6.7
		c-0.5-4.1,2.5-7.8,6.6-8.3c20-2.2,34.3-8.6,46.6-20.9c12.2-12.2,18.7-26.6,20.9-46.6c0.5-4.1,4.2-7.1,8.3-6.6
		c4.1,0.5,7.1,4.2,6.6,8.3c-2.6,23.6-10.4,40.7-25.2,55.5C131.1,308.1,114,315.8,90.4,318.4z"/>
	<path class="st1" d="M171.1,237.7c0.5-4.1-2.5-7.8-6.6-8.3c-4.1-0.4-7.8,2.5-8.3,6.6c-2.2,20-8.6,34.3-20.9,46.6
		c-12.2,12.2-26.6,18.7-46.6,20.9c-4.1,0.5-7.1,4.2-6.6,8.3c0.4,3.8,3.7,6.7,7.4,6.7c0.3,0,0.6,0,0.8,0
		c23.6-2.6,40.7-10.4,55.5-25.2C160.8,278.5,168.5,261.3,171.1,237.7z"/>
	<path class="st1" d="M183.3,207.7c1.7,0,3.5-0.6,4.9-1.8c9.8-8.4,22.4-13,35.4-13c4.1,0,7.5-3.4,7.5-7.5s-3.4-7.5-7.5-7.5
		c-16.6,0-32.6,5.9-45.1,16.6c-3.1,2.7-3.5,7.4-0.8,10.6C179.1,206.8,181.2,207.7,183.3,207.7z"/>
</g>
</svg>
